<?xml version="1.0" encoding="UTF-8" standalone="no"?>
<!-- Created with Inkscape (http://www.inkscape.org/) -->

<svg
   version="1.1"
   id="svg815"
   width="257.72452"
   height="255.77194"
   viewBox="0 0 257.72452 255.77194"
   sodipodi:docname="mrbostonx_butt.svg"
   inkscape:version="1.1 (c68e22c387, 2021-05-23)"
   xmlns:inkscape="http://www.inkscape.org/namespaces/inkscape"
   xmlns:sodipodi="http://sodipodi.sourceforge.net/DTD/sodipodi-0.dtd"
   xmlns:xlink="http://www.w3.org/1999/xlink"
   xmlns="http://www.w3.org/2000/svg"
   xmlns:svg="http://www.w3.org/2000/svg"
   xmlns:rdf="http://www.w3.org/1999/02/22-rdf-syntax-ns#"
   xmlns:cc="http://creativecommons.org/ns#"
   xmlns:dc="http://purl.org/dc/elements/1.1/">
  <metadata
     id="metadata821">
    <rdf:RDF>
      <cc:Work
         rdf:about="">
        <dc:format>image/svg+xml</dc:format>
        <dc:type
           rdf:resource="http://purl.org/dc/dcmitype/StillImage" />
      </cc:Work>
    </rdf:RDF>
  </metadata>
  <defs
     id="defs819">
    <linearGradient
       inkscape:collect="always"
       id="linearGradient4668">
      <stop
         style="stop-color:#ff5555;stop-opacity:1"
         offset="0"
         id="stop4664" />
      <stop
         style="stop-color:#aa0000;stop-opacity:1"
         offset="1"
         id="stop4666" />
    </linearGradient>
    <linearGradient
       inkscape:collect="always"
       id="linearGradient4422">
      <stop
         style="stop-color:#ff7f2a;stop-opacity:1"
         offset="0"
         id="stop4418" />
      <stop
         style="stop-color:#ffd42a;stop-opacity:1"
         offset="1"
         id="stop4420" />
    </linearGradient>
    <linearGradient
       inkscape:collect="always"
       id="linearGradient1242">
      <stop
         style="stop-color:#ff7f2a;stop-opacity:1"
         offset="0"
         id="stop1238" />
      <stop
         style="stop-color:#ffcc00;stop-opacity:1"
         offset="0.64093703"
         id="stop3772" />
      <stop
         style="stop-color:#ffcc00;stop-opacity:1"
         offset="0.66949737"
         id="stop3706" />
      <stop
         style="stop-color:#ff872a;stop-opacity:1;"
         offset="0.73632652"
         id="stop1726" />
      <stop
         style="stop-color:#ffa82a;stop-opacity:1;"
         offset="0.74581963"
         id="stop1792" />
      <stop
         style="stop-color:#ffb22a;stop-opacity:1;"
         offset="0.76461029"
         id="stop3446" />
      <stop
         style="stop-color:#ff7f2a;stop-opacity:1"
         offset="0.79067415"
         id="stop3512" />
      <stop
         style="stop-color:#ffd42a;stop-opacity:1"
         offset="1"
         id="stop1240" />
    </linearGradient>
    <filter
       inkscape:label="Button"
       inkscape:menu="Bevels"
       inkscape:menu-tooltip="Soft bevel, slightly depressed middle"
       style="color-interpolation-filters:sRGB"
       id="filter1376"
       x="-0.21963979"
       y="-0.19350874"
       width="1.4392796"
       height="1.3870175">
      <feGaussianBlur
         stdDeviation="2.3"
         in="SourceAlpha"
         result="result0"
         id="feGaussianBlur1350" />
      <feMorphology
         in="SourceAlpha"
         radius="6.6"
         result="result1"
         id="feMorphology1352" />
      <feGaussianBlur
         stdDeviation="8.9"
         in="result1"
         id="feGaussianBlur1354" />
      <feColorMatrix
         values="1 0 0 0 0 0 1 0 0 0 0 0 1 0 0 0 0 0 0.3 0"
         result="result91"
         id="feColorMatrix1356" />
      <feComposite
         in="result0"
         operator="out"
         result="result2"
         in2="result91"
         id="feComposite1358" />
      <feGaussianBlur
         stdDeviation="1.7"
         result="result4"
         id="feGaussianBlur1360" />
      <feDiffuseLighting
         surfaceScale="10"
         id="feDiffuseLighting1364">
        <feDistantLight
           azimuth="225"
           elevation="45"
           id="feDistantLight1362" />
      </feDiffuseLighting>
      <feBlend
         in2="SourceGraphic"
         mode="multiply"
         id="feBlend1366" />
      <feComposite
         in2="SourceAlpha"
         operator="in"
         result="result3"
         id="feComposite1368" />
      <feSpecularLighting
         in="result4"
         surfaceScale="5"
         specularExponent="17.89999962"
         id="feSpecularLighting1372">
        <feDistantLight
           azimuth="225"
           elevation="45"
           id="feDistantLight1370" />
      </feSpecularLighting>
      <feComposite
         in2="result3"
         operator="atop"
         id="feComposite1374" />
    </filter>
    <filter
       style="color-interpolation-filters:sRGB"
       inkscape:label="Matte Jelly"
       id="filter1690"
       x="-0.11918439"
       y="-0.10500475"
       width="1.2383688"
       height="1.2100095">
      <feColorMatrix
         values="1 0 0 0 0 0 1 0 0 0 0 0 1 0 0 0 0 0 0.85 0"
         result="color"
         in="SourceGraphic"
         id="feColorMatrix1678" />
      <feGaussianBlur
         in="SourceAlpha"
         stdDeviation="7"
         result="blur"
         id="feGaussianBlur1680" />
      <feSpecularLighting
         in="blur"
         specularExponent="25"
         specularConstant="0.89999998"
         surfaceScale="5"
         lighting-color="#ffffff"
         result="specular"
         id="feSpecularLighting1684">
        <feDistantLight
           elevation="60"
           azimuth="225"
           id="feDistantLight1682" />
      </feSpecularLighting>
      <feComposite
         in="specular"
         in2="SourceGraphic"
         k3="1"
         k2="1"
         operator="arithmetic"
         result="composite1"
         id="feComposite1686"
         k1="0"
         k4="0" />
      <feComposite
         in="composite1"
         in2="color"
         operator="atop"
         result="composite2"
         id="feComposite1688" />
    </filter>
    <linearGradient
       inkscape:collect="always"
       xlink:href="#linearGradient934"
       id="linearGradient912"
       gradientUnits="userSpaceOnUse"
       x1="89.958336"
       y1="68.791664"
       x2="89.958336"
       y2="100.54166"
       gradientTransform="matrix(1.8457533,0,0,7.9367691,-37.178662,-544.09381)" />
    <linearGradient
       inkscape:collect="always"
       id="linearGradient934">
      <stop
         style="stop-color:#4d4d4d;stop-opacity:1"
         offset="0"
         id="stop930" />
      <stop
         style="stop-color:#000000;stop-opacity:1"
         offset="1"
         id="stop932" />
    </linearGradient>
    <linearGradient
       inkscape:collect="always"
       xlink:href="#linearGradient1072"
       id="linearGradient1074"
       x1="62.362217"
       y1="11.889763"
       x2="62.362217"
       y2="111.88976"
       gradientUnits="userSpaceOnUse"
       gradientTransform="matrix(2.0996744,0,0,2.0999368,-98.44035,-17.968419)" />
    <linearGradient
       inkscape:collect="always"
       id="linearGradient1072">
      <stop
         style="stop-color:#000000;stop-opacity:1;"
         offset="0"
         id="stop1068" />
      <stop
         style="stop-color:#666666;stop-opacity:1"
         offset="1"
         id="stop1070" />
    </linearGradient>
    <linearGradient
       inkscape:collect="always"
       xlink:href="#linearGradient1137"
       id="linearGradient1139"
       x1="16.346714"
       y1="1.1279997"
       x2="16.390364"
       y2="12.461457"
       gradientUnits="userSpaceOnUse"
       gradientTransform="matrix(6.6262006,0,0,9.1234883,-74.753364,22.836882)" />
    <linearGradient
       inkscape:collect="always"
       id="linearGradient1137">
      <stop
         style="stop-color:#ffffff;stop-opacity:1;"
         offset="0"
         id="stop1133" />
      <stop
         style="stop-color:#ffffff;stop-opacity:0;"
         offset="1"
         id="stop1135" />
    </linearGradient>
    <filter
       style="color-interpolation-filters:sRGB"
       inkscape:label="Drop Shadow"
       id="filter38008"
       x="-0.32262116"
       y="-0.29896042"
       width="1.6452423"
       height="1.5979208">
      <feFlood
         flood-opacity="1"
         flood-color="rgb(0,0,0)"
         result="flood"
         id="feFlood37998" />
      <feComposite
         in="flood"
         in2="SourceGraphic"
         operator="in"
         result="composite1"
         id="feComposite38000" />
      <feGaussianBlur
         in="composite1"
         stdDeviation="5.38922"
         result="blur"
         id="feGaussianBlur38002" />
      <feOffset
         dx="0"
         dy="0"
         result="offset"
         id="feOffset38004" />
      <feComposite
         in="SourceGraphic"
         in2="offset"
         operator="over"
         result="fbSourceGraphic"
         id="feComposite38006" />
      <feColorMatrix
         result="fbSourceGraphicAlpha"
         in="fbSourceGraphic"
         values="0 0 0 -1 0 0 0 0 -1 0 0 0 0 -1 0 0 0 0 1 0"
         id="feColorMatrix38028" />
      <feFlood
         id="feFlood38030"
         flood-opacity="1"
         flood-color="rgb(0,0,0)"
         result="flood"
         in="fbSourceGraphic" />
      <feComposite
         in2="fbSourceGraphic"
         id="feComposite38032"
         in="flood"
         operator="in"
         result="composite1" />
      <feGaussianBlur
         id="feGaussianBlur38034"
         in="composite1"
         stdDeviation="5.38922"
         result="blur" />
      <feOffset
         id="feOffset38036"
         dx="0"
         dy="0"
         result="offset" />
      <feComposite
         in2="offset"
         id="feComposite38038"
         in="fbSourceGraphic"
         operator="over"
         result="fbSourceGraphic" />
      <feColorMatrix
         result="fbSourceGraphicAlpha"
         in="fbSourceGraphic"
         values="0 0 0 -1 0 0 0 0 -1 0 0 0 0 -1 0 0 0 0 1 0"
         id="feColorMatrix38058" />
      <feFlood
         id="feFlood38060"
         flood-opacity="1"
         flood-color="rgb(0,0,0)"
         result="flood"
         in="fbSourceGraphic" />
      <feComposite
         in2="fbSourceGraphic"
         id="feComposite38062"
         in="flood"
         operator="in"
         result="composite1" />
      <feGaussianBlur
         id="feGaussianBlur38064"
         in="composite1"
         stdDeviation="5.38922"
         result="blur" />
      <feOffset
         id="feOffset38066"
         dx="0"
         dy="0"
         result="offset" />
      <feComposite
         in2="offset"
         id="feComposite38068"
         in="fbSourceGraphic"
         operator="over"
         result="composite2" />
    </filter>
    <filter
       style="color-interpolation-filters:sRGB;"
       inkscape:label="Drop Shadow"
       id="filter16156"
       x="-0.013268392"
       y="-0.18043355"
       width="1.0265368"
       height="1.3608671">
      <feFlood
         flood-opacity="1"
         flood-color="rgb(0,0,0)"
         result="flood"
         id="feFlood16146" />
      <feComposite
         in="flood"
         in2="SourceGraphic"
         operator="out"
         result="composite1"
         id="feComposite16148" />
      <feGaussianBlur
         in="composite1"
         stdDeviation="1.79641"
         result="blur"
         id="feGaussianBlur16150" />
      <feOffset
         dx="0"
         dy="0"
         result="offset"
         id="feOffset16152" />
      <feComposite
         in="offset"
         in2="SourceGraphic"
         operator="atop"
         result="composite2"
         id="feComposite16154" />
    </filter>
    <filter
       style="color-interpolation-filters:sRGB"
       inkscape:label="Drop Shadow"
       id="filter16156-2"
       x="-0.013268392"
       y="-0.18043355"
       width="1.0265368"
       height="1.3608671">
      <feFlood
         flood-opacity="1"
         flood-color="rgb(0,0,0)"
         result="flood"
         id="feFlood16146-4" />
      <feComposite
         in="flood"
         in2="SourceGraphic"
         operator="out"
         result="composite1"
         id="feComposite16148-8" />
      <feGaussianBlur
         in="composite1"
         stdDeviation="1.79641"
         result="blur"
         id="feGaussianBlur16150-6" />
      <feOffset
         dx="0"
         dy="0"
         result="offset"
         id="feOffset16152-9" />
      <feComposite
         in="offset"
         in2="SourceGraphic"
         operator="atop"
         result="composite2"
         id="feComposite16154-9" />
    </filter>
    <filter
       style="color-interpolation-filters:sRGB"
       inkscape:label="Drop Shadow"
       id="filter16156-2-5"
       x="-0.013268392"
       y="-0.18043355"
       width="1.0265368"
       height="1.3608671">
      <feFlood
         flood-opacity="1"
         flood-color="rgb(0,0,0)"
         result="flood"
         id="feFlood16146-4-0" />
      <feComposite
         in="flood"
         in2="SourceGraphic"
         operator="out"
         result="composite1"
         id="feComposite16148-8-5" />
      <feGaussianBlur
         in="composite1"
         stdDeviation="1.79641"
         result="blur"
         id="feGaussianBlur16150-6-7" />
      <feOffset
         dx="0"
         dy="0"
         result="offset"
         id="feOffset16152-9-6" />
      <feComposite
         in="offset"
         in2="SourceGraphic"
         operator="atop"
         result="composite2"
         id="feComposite16154-9-0" />
    </filter>
    <filter
       style="color-interpolation-filters:sRGB"
       inkscape:label="Drop Shadow"
       id="filter16156-4"
       x="-0.013268392"
       y="-0.18043355"
       width="1.0265368"
       height="1.3608671">
      <feFlood
         flood-opacity="1"
         flood-color="rgb(0,0,0)"
         result="flood"
         id="feFlood16146-6" />
      <feComposite
         in="flood"
         in2="SourceGraphic"
         operator="out"
         result="composite1"
         id="feComposite16148-0" />
      <feGaussianBlur
         in="composite1"
         stdDeviation="1.79641"
         result="blur"
         id="feGaussianBlur16150-4" />
      <feOffset
         dx="0"
         dy="0"
         result="offset"
         id="feOffset16152-5" />
      <feComposite
         in="offset"
         in2="SourceGraphic"
         operator="atop"
         result="composite2"
         id="feComposite16154-5" />
    </filter>
    <filter
       style="color-interpolation-filters:sRGB"
       inkscape:label="Drop Shadow"
       id="filter16156-6"
       x="-0.013268392"
       y="-0.18043355"
       width="1.0265368"
       height="1.3608671">
      <feFlood
         flood-opacity="1"
         flood-color="rgb(0,0,0)"
         result="flood"
         id="feFlood16146-60" />
      <feComposite
         in="flood"
         in2="SourceGraphic"
         operator="out"
         result="composite1"
         id="feComposite16148-2" />
      <feGaussianBlur
         in="composite1"
         stdDeviation="1.79641"
         result="blur"
         id="feGaussianBlur16150-67" />
      <feOffset
         dx="0"
         dy="0"
         result="offset"
         id="feOffset16152-2" />
      <feComposite
         in="offset"
         in2="SourceGraphic"
         operator="atop"
         result="composite2"
         id="feComposite16154-94" />
    </filter>
    <radialGradient
       inkscape:collect="always"
       xlink:href="#linearGradient1242"
       id="radialGradient1236"
       cx="128.99091"
       cy="114.11864"
       fx="128.99091"
       fy="114.11864"
       r="82.638871"
       gradientTransform="matrix(1.2730979,-0.01291297,0.01287354,1.2691891,-37.123063,-28.638958)"
       gradientUnits="userSpaceOnUse" />
    <linearGradient
       inkscape:collect="always"
       xlink:href="#linearGradient4422"
       id="linearGradient4424"
       x1="127.5"
       y1="169.55276"
       x2="128"
       y2="66.552773"
       gradientUnits="userSpaceOnUse" />
    <linearGradient
       inkscape:collect="always"
       xlink:href="#linearGradient4668"
       id="linearGradient4670"
       x1="125.86222"
       y1="42.942535"
       x2="125.86222"
       y2="197.94254"
       gradientUnits="userSpaceOnUse" />
  </defs>
  <sodipodi:namedview
     pagecolor="#ffffff"
     bordercolor="#666666"
     borderopacity="1"
     objecttolerance="10"
     gridtolerance="10"
     guidetolerance="10"
     inkscape:pageopacity="0"
     inkscape:pageshadow="2"
     inkscape:window-width="1366"
     inkscape:window-height="705"
     id="namedview817"
     showgrid="false"
     inkscape:zoom="1.4142136"
     inkscape:cx="61.518288"
     inkscape:cy="131.1683"
     inkscape:window-x="-8"
     inkscape:window-y="-8"
     inkscape:window-maximized="1"
     inkscape:current-layer="g1165"
     inkscape:pagecheckerboard="0"
     inkscape:snap-global="true"
     showguides="false">
    <inkscape:grid
       type="xygrid"
       id="grid829"
       originx="5.862218"
       originy="-283.61024" />
  </sodipodi:namedview>
  <g
     inkscape:groupmode="layer"
     id="layer1"
     inkscape:label="Layer 1"
     style="display:inline"
     transform="translate(96.362218,15.88976)"
     sodipodi:insensitive="true">
    <path
       id="rect837-1"
       style="display:inline;fill:url(#linearGradient912);fill-opacity:1;stroke:#151515;stroke-width:3.77952;stroke-miterlimit:4;stroke-dasharray:none;stroke-opacity:1"
       d="m 127.88672,1.890625 c -69.801901,0 -125.996095,56.194194 -125.996095,125.996095 0,69.8019 56.194194,125.99609 125.996095,125.99609 h 1.95117 c 69.8019,0 125.99609,-56.19419 125.99609,-125.99609 0,-69.801901 -56.19419,-125.996095 -125.99609,-125.996095 z m 0.97461,41.998047 A 83.984333,83.997469 0 0 1 212.8457,127.88672 83.984333,83.997469 0 0 1 128.86133,211.88281 83.984333,83.997469 0 0 1 44.876953,127.88672 83.984333,83.997469 0 0 1 128.86133,43.888672 Z"
       transform="translate(-96.362218,-15.88976)" />
    <g
       id="g859"
       transform="matrix(7.9357773,0,0,7.936769,-267.12049,-874.69413)"
       style="display:inline;stroke-width:0.476235" />
    <path
       id="rect914"
       style="display:inline;fill:url(#linearGradient1074);fill-opacity:1;stroke:none;stroke-width:419.529;stroke-linecap:round;stroke-linejoin:round"
       d="m 32.498141,6.4638629 c -58.457707,0 -105.516851,47.0690961 -105.516851,105.5341171 0,58.46502 47.059144,105.53002 105.516851,105.53002 58.457707,0 105.520939,-47.065 105.520939,-105.53002 0,-58.465021 -47.063232,-105.5341171 -105.520939,-105.5341171 z m 0,21.5366581 A 83.986974,83.99747 0 0 1 116.48512,111.99798 83.986974,83.99747 0 0 1 32.498141,195.99545 83.986974,83.99747 0 0 1 -51.48883,111.99798 83.986974,83.99747 0 0 1 32.498141,28.000521 Z" />
  </g>
  <g
     inkscape:groupmode="layer"
     id="layer5"
     inkscape:label="Layer 5"
     style="display:inline"
     sodipodi:insensitive="true">
    <ellipse
       style="display:inline;fill:#000000;stroke:none;stroke-width:1.75748;stroke-linecap:round;stroke-linejoin:round;stroke-miterlimit:4;stroke-dasharray:none;stroke-opacity:1"
       id="path35693"
       cx="128.86226"
       cy="127.88597"
       rx="84.191002"
       ry="84.190979" />
  </g>
  <g
     inkscape:groupmode="layer"
     id="layer3"
     inkscape:label="Layer 6"
     sodipodi:insensitive="true">
    <g
       id="g1165"
       transform="translate(0,13.447226)">
      <path
         d="m 211.50113,114.43875 c 0,-11.27249 -2.07914,-22.024555 -6.23999,-32.258758 C 200.92596,72.468783 195.02694,63.62409 187.39487,55.992025 179.76281,48.362522 170.92068,42.46606 161.20691,38.130883 150.97783,33.96747 140.22064,31.71399 128.94815,31.71399 c -11.27249,0 -21.85023,2.25348 -32.084432,6.416893 A 83.411819,83.411819 0 0 0 70.503986,55.992025 c -7.632074,7.632065 -13.700293,16.476758 -17.863705,26.187967 -4.163413,10.231639 -6.416893,20.986268 -6.416893,32.258758 0,11.27249 2.25348,21.85023 6.416893,32.08443 4.163412,10.05986 10.231631,18.73023 17.863705,26.35973 7.632066,7.63207 16.302421,13.70029 26.359732,17.69194 10.231642,4.33518 20.811942,6.58865 32.084432,6.58865 11.27249,0 22.02712,-2.25347 32.25876,-6.58865 9.71377,-3.99165 18.5559,-10.05987 26.18796,-17.69194 7.63207,-7.6295 13.52853,-16.29987 17.86627,-26.35973 4.16341,-10.2342 6.23999,-20.81194 6.23999,-32.08443 z"
         fill="#d2b346"
         id="path6"
         style="fill:url(#radialGradient1236);fill-opacity:1;stroke-width:12.9698" />
      <path
         d="m 200.22607,114.43875 c 0,-9.71121 -1.73304,-19.076325 -5.54779,-27.746689 -3.47122,-8.49859 -8.67292,-16.130656 -15.26158,-22.719305 -6.76554,-6.591221 -14.22071,-11.792924 -22.71674,-15.261577 -8.84726,-3.814755 -18.03804,-5.547796 -27.75181,-5.547796 -9.71121,0 -18.90456,1.733041 -27.74669,5.547796 -8.67292,3.468653 -16.128094,8.670356 -22.719306,15.261577 -6.591222,6.591213 -11.621159,14.220715 -15.261577,22.719305 -3.814756,8.670364 -5.722133,18.035479 -5.722133,27.746689 0,9.71121 1.907377,18.90456 5.722133,27.74669 3.640418,8.49859 8.670355,16.13065 15.261577,22.7193 a 69.919183,69.919183 0 0 0 22.719306,15.26158 69.096244,69.096244 0 0 0 27.74669,5.7247 c 9.71377,0 18.90455,-1.90738 27.75181,-5.7247 8.49603,-3.64042 15.95376,-8.67036 22.71674,-15.26158 6.58866,-6.59121 11.79293,-14.22071 15.26158,-22.7193 3.81475,-8.8447 5.54779,-18.03548 5.54779,-27.74669 z"
         fill="#cc2229"
         id="path8"
         style="fill:url(#linearGradient4670);fill-opacity:1;stroke-width:12.9698" />
      <path
         d="m 174.82183,71.256165 -3.29432,-4.163421 c -0.1692,-0.694751 -0.52043,-1.215182 -0.6922,-1.90737 l -0.35122,-1.215181 c -0.5153,-0.866525 -1.73305,-1.040862 -3.4661,-0.69476 -2.2586,0.69476 -5.20169,3.468653 -8.32682,8.324262 -4.85817,6.765541 -9.01902,11.967244 -12.65944,15.089803 -2.4278,2.253471 -5.2017,3.468662 -8.15249,3.814755 -0.69476,0 -1.38696,-0.174328 -2.08171,-0.52043 -0.86652,-0.694751 -1.38695,-2.256035 -1.38695,-5.029929 2.25347,-1.561284 3.81475,-3.468662 5.2017,-5.896462 1.04085,-1.733049 1.38695,-3.294324 1.38695,-4.855608 -0.1692,-1.561276 -2.42524,-1.733041 -6.93731,-0.346094 l -2.94567,1.040853 -1.04085,-1.040853 -2.08171,-2.253472 c -1.90737,-1.386955 -3.12256,-1.040853 -3.81475,0.866525 -0.17177,0.694751 -0.3461,1.907369 -0.52042,3.814747 -5.37603,2.602137 -8.1525,4.855609 -8.1525,6.416884 0,1.040853 0.52042,1.907378 1.73561,2.599574 1.04086,0.520422 2.94823,1.215181 5.72213,1.907378 0.17433,1.561275 0,2.4278 -0.52043,2.94823 l -2.0817,0.171766 c -3.46866,-0.346103 -6.24512,-1.558721 -8.67036,-3.640427 -3.29433,-2.776457 -7.45774,-7.803831 -12.487678,-14.915475 -2.4278,-3.640427 -5.201702,-6.416884 -8.152496,-8.324261 L 89.48982,62.926768 h -1.727922 l -0.866516,1.21519 -0.174329,1.558712 c 0,0.520431 -0.520431,1.040853 -0.866525,1.735613 l -2.94823,3.814747 -6.416884,8.498598 c -1.561284,2.773894 -3.468662,6.068219 -5.376031,10.231631 -2.427809,5.37604 -3.989084,11.618591 -4.68128,18.730231 -0.520431,7.10908 -0.174329,13.52596 1.212618,19.77108 2.4278,9.88555 6.591212,18.5559 12.659439,26.01364 l 2.948231,3.29433 c 0.866525,1.38951 1.386947,1.56128 2.081707,0.69475 0.174328,-0.34865 0,-1.04085 -0.866525,-1.90737 l -2.081706,-2.60213 c -2.4278,-3.47123 -4.335178,-6.93732 -5.55036,-10.5803 -3.64299,-9.19078 -4.163412,-14.22072 -1.735612,-15.4359 1.735612,-0.69476 3.814755,0.86652 6.416884,5.02993 l 1.733049,2.94823 c 0.694759,1.56128 1.215182,2.25348 1.907378,2.08171 0.694759,-0.52043 0.346094,-1.38952 -0.866525,-3.12257 -1.386947,-2.77389 -2.773902,-6.41688 -3.640418,-11.09815 -1.040853,-6.07079 -0.520431,-9.88555 1.558712,-11.2725 2.256035,-1.21518 4.858172,0 7.803839,3.81476 1.040854,1.04085 1.733041,2.4278 2.4278,3.81475 1.215182,2.42781 1.907378,3.98908 2.081707,5.02993 0.346094,1.38695 0.520422,1.90738 1.215181,1.73305 0.866525,-0.17432 1.040854,-0.86652 0.346094,-2.25347 l -0.520422,-3.81475 c 0,-3.64299 0.866525,-5.72213 2.776466,-6.24512 2.08171,-0.69476 3.98908,0.17433 5.89645,2.94823 1.90738,2.77389 2.77391,6.58865 2.77391,11.27249 0,1.04085 -0.52043,1.56128 -1.21518,2.08171 -2.77391,1.04085 -3.98909,2.4278 -3.98909,3.98907 0.17177,1.90738 0.69476,3.29434 1.90738,4.50952 5.72212,-2.77647 9.7112,-3.29433 12.65943,-1.38695 2.25348,1.38695 4.68384,5.55036 6.93731,12.65944 2.25348,7.10907 3.64043,14.39248 4.33519,22.02456 l 0.34865,5.02993 c 0,1.04086 0.17177,1.38695 0.86653,1.38695 0.69475,0 1.04085,-0.34609 0.86652,-1.38695 l 0.3461,-5.02993 c 0.69476,-7.63208 2.25603,-14.91549 4.33517,-21.67847 2.08171,-6.93731 4.50951,-11.27249 6.76299,-13.00553 2.7739,-1.90738 6.76554,-1.38952 12.48768,1.03828 1.56127,-0.69219 2.25347,-2.25347 2.4278,-4.16085 0,-1.7356 -1.21775,-3.12256 -3.99165,-3.98907 -0.86653,-0.52043 -1.38695,-1.04086 -1.38695,-2.08171 0,-4.68384 0.86653,-8.4986 2.7739,-11.44682 1.90737,-2.60214 3.81475,-3.46866 5.89902,-2.94823 2.07914,0.69475 2.94823,2.77389 2.7739,6.41688 l -0.3461,3.81476 c -0.69475,1.38695 -0.69475,2.08171 0.1692,2.08171 0.69476,0.17432 1.04086,-0.34611 1.21776,-1.73305 0,-1.04086 0.69218,-2.77647 2.07914,-5.02994 0.69475,-1.38695 1.56127,-2.60213 2.4278,-3.81476 2.94823,-3.81474 5.55292,-5.02736 7.8064,-3.64042 2.25347,1.38695 2.7739,5.20171 1.56128,11.09817 a 70.201187,70.201187 0 0 1 -2.08171,7.45774 l -1.73305,3.64041 c -1.04085,1.90738 -1.21774,2.77647 -0.69475,3.12256 0.69475,0.17434 1.38695,-0.34609 1.90738,-1.90737 l 1.90737,-2.94823 c 2.6047,-4.33518 4.51208,-5.89646 6.41432,-5.02993 2.42781,1.04085 1.9125,6.24512 -1.90224,15.4359 a 38.80639,38.80639 0 0 1 -5.55294,10.5803 l -2.07914,2.60213 c -0.69475,0.69476 -1.04085,1.38695 -0.69475,1.90737 0.69475,0.69476 1.21775,0.69476 1.90738,-0.69475 l 2.94822,-3.29433 c 6.06823,-7.45774 10.40597,-16.30242 12.65944,-26.01364 1.38696,-6.24512 1.73818,-12.83377 1.21775,-19.77108 -0.69476,-7.10907 -2.0817,-13.354191 -4.68128,-18.730231 -1.90737,-4.163412 -3.81987,-7.457737 -5.37859,-10.231631 z"
         id="path10"
         style="stroke-width:12.9698" />
      <path
         d="m 178.38383,81.662124 c -1.21776,-2.602128 -2.94824,-5.376031 -5.37861,-8.49859 l -3.81474,-5.027374 -0.52043,-1.38951 -0.17433,-0.692196 h -1.38695 c -0.52043,0.346102 -1.38696,1.040861 -2.42781,2.25348 -2.94309,3.122559 -5.5478,7.978159 -7.63206,14.220715 -1.90226,6.245119 -3.64042,10.231639 -4.85305,11.618586 -0.86652,1.040853 -1.90737,1.561284 -3.29432,1.907378 -1.73817,0.174328 -3.64555,-0.171765 -5.55293,-1.212618 a 22.878259,22.878259 0 0 0 -6.06822,-2.081707 c -2.08171,-0.520422 -2.4278,-0.346093 -1.73305,0.174329 5.37347,3.119996 6.76042,9.536883 4.16341,19.076333 l -3.12256,9.19078 -3.46865,8.67036 c -2.77391,7.10907 -4.16342,14.56938 -4.33518,22.37321 0,-3.98908 -0.52043,-8.49602 -1.55871,-13.52596 -1.38952,-6.24512 -3.12257,-10.23164 -5.02994,-11.61859 -1.73561,-1.56127 -3.81476,-1.90738 -5.89646,-1.21518 -2.25347,0.52042 -3.64043,1.90738 -4.85561,4.16341 0.52043,-4.68384 1.38695,-7.45773 2.60214,-8.49859 1.56127,-0.86652 4.33517,0 8.32426,2.4278 -2.60214,-6.24512 -4.16341,-10.40597 -4.50952,-12.65944 -1.21262,-5.02993 -1.04084,-9.19078 0.34611,-12.659437 0.86652,-1.907377 2.0817,-3.294324 3.98908,-4.335177 a 12.139014,12.139014 0 0 1 2.94823,-1.040854 c 0.69475,-0.174337 1.04084,-0.346102 0.86652,-0.866524 l -0.34866,-2.776466 c -0.17177,-0.520422 -0.17177,-0.866524 -0.52042,-0.866524 -0.17178,0.171773 -0.34611,0.866524 -0.34611,2.773902 0,0.348657 -0.69475,0.520422 -2.60212,0.694759 -3.12256,0.520423 -5.72214,1.215182 -7.80384,2.602129 -1.90738,1.212618 -3.81476,1.561284 -5.55036,1.212618 -1.38696,-0.171765 -2.42781,-0.694751 -3.29433,-1.907369 a 12.956828,12.956828 0 0 1 -1.90737,-3.468662 L 101.0351,83.04908 C 98.953391,76.632196 96.179497,71.776587 92.8826,68.307934 l -2.4278,-2.25348 h -1.386947 l -0.171765,0.692196 -0.520431,1.38951 -3.640418,4.506952 c -2.253472,3.122559 -3.989084,5.896453 -5.37604,8.49859 -3.989075,7.632066 -6.070781,15.435905 -6.24511,23.065408 -0.171774,8.49603 1.040853,15.08725 3.814747,19.77108 l 0.174329,-0.17176 c -1.90737,-5.89646 -2.602129,-12.31335 -1.90737,-19.25066 0.520423,-5.029932 1.733041,-10.231634 3.814747,-15.782002 1.73305,-4.858164 3.640427,-8.844685 5.722134,-11.795479 -0.866525,4.509507 -1.040854,10.23164 -0.346103,16.822852 0.866525,8.149929 2.773903,14.912909 6.068227,20.117179 h 0.174329 C 88.547423,107.84754 87.160476,100.73846 86.814382,92.934617 86.640053,86.171639 86.986147,80.446942 88.027,75.765671 c 0.866525,-4.163413 2.081707,-6.07079 3.12256,-6.07079 0.520422,0 1.040853,0.694759 1.73304,2.081706 1.040853,1.215182 1.735613,2.4278 2.081707,3.64299 1.733049,3.989076 2.773902,8.152488 3.468661,13.005534 1.386947,10.405968 3.468652,16.302429 6.416882,17.517609 1.73305,0.86653 3.46866,0.3461 5.55036,-1.04085 1.90738,-1.21518 3.12256,-3.12256 3.98909,-5.029938 -0.69219,2.602128 -1.04086,5.029938 -0.69219,7.109078 0.17176,2.25604 0.86652,4.68384 2.08171,7.45774 l 3.29432,6.24512 -3.12256,-1.73561 -1.90738,-0.52043 c -1.55872,0 -2.60213,0.86653 -3.29432,3.12256 -0.86652,2.25604 -1.38696,5.55036 -1.38696,9.53945 0,0.86652 -0.52042,1.38694 -1.04085,1.56127 -3.29689,0.69476 -4.50951,1.90738 -3.81731,3.46866 1.90993,-0.86652 4.16341,-1.38952 6.93731,-1.56128 0,-1.56128 0.69476,-3.12256 1.90737,-4.68384 1.73562,-1.56128 3.46866,-1.90737 5.55036,-1.38695 2.77391,1.21519 4.85561,4.85561 6.58866,11.09816 1.56128,5.20427 2.4278,11.2725 2.94823,17.86371 l 0.3461,10.05987 c 0.17432,-0.86652 0.34865,-4.33518 0.52043,-10.05987 0.34609,-6.58865 1.21517,-12.65944 2.77645,-17.86371 1.73305,-6.24255 3.98909,-9.88297 6.76299,-11.09816 1.90994,-0.52042 3.81731,-0.17433 5.37347,1.56128 1.38694,1.38695 2.0817,2.94823 1.73816,4.50951 2.94824,0.17176 5.20171,0.69476 7.10908,1.56128 0.86653,-1.56128 -0.34609,-2.60213 -3.64041,-3.46866 -0.69476,-0.17433 -1.04086,-0.69475 -1.21775,-1.56127 -0.17434,-4.33518 -0.52043,-7.45774 -1.21263,-9.53945 -0.69475,-2.25347 -1.73816,-3.12256 -3.29432,-3.12256 l -2.08171,1.04086 -2.4278,1.04085 2.25091,-4.68128 c 1.90738,-3.64298 2.60469,-7.45774 2.60469,-10.92639 -0.17433,-2.25347 -0.17433,-3.98909 -0.69475,-5.376032 1.21775,2.776452 2.25347,4.509502 3.29433,5.376032 0.86652,0.86652 1.73817,1.38695 2.94823,1.38695 1.21774,0.17432 2.25347,0 3.29432,-0.86653 2.6047,-2.25347 4.85817,-7.978158 6.24512,-16.997179 1.21775,-5.722125 2.25347,-9.882974 3.47122,-13.005534 l 1.90738,-3.64299 c 1.04085,-1.386947 1.55615,-2.081706 1.90737,-2.081706 1.04086,0 2.25348,1.907377 3.12,6.07079 1.04085,4.683835 1.56128,10.405968 1.21774,17.168946 -0.35122,7.803843 -1.56127,14.912923 -3.81474,20.983703 h 0.1692 c 3.29432,-5.2017 5.2017,-11.96468 6.07335,-20.117179 0.69219,-6.591212 0.52043,-12.313345 -0.35123,-16.822852 2.08171,2.948231 3.99165,6.937315 5.89903,11.795479 2.08171,5.550368 3.29432,10.75207 3.64042,15.782002 0.52043,6.93731 0,13.52596 -1.73304,19.25066 l 0.17433,0.17176 c 2.59956,-4.68383 3.81474,-11.27249 3.81474,-19.77108 -0.35122,-7.283409 -2.2586,-14.741146 -6.24254,-22.544986 z"
         fill="#d2b346"
         id="path12"
         style="fill:url(#linearGradient4424);fill-opacity:1;stroke-width:12.9698" />
      <path
         d="m 125.53116,79.059996 c -0.86653,0.52043 -1.38696,1.040853 -1.38696,1.735612 0,0.520422 0.17176,0.694751 0.86652,0.866516 h 2.4278 c 0.69476,0 1.21519,-0.174328 1.21519,-0.520422 0,-0.69476 0,-1.040853 -0.52043,-1.561276 -0.69218,-0.694759 -1.55871,-0.869087 -2.60212,-0.52043 z m 5.89901,-0.520431 0.52043,1.907377 1.21518,-1.38951 c 0.3461,-0.692196 0.52043,-1.212618 0.3461,-1.386947 l -1.04086,0.346094 z"
         fill="#d2b346"
         id="path14"
         style="stroke-width:12.9698" />
    </g>
  </g>
  <g
     inkscape:groupmode="layer"
     id="layer2"
     inkscape:label="Layer 2"
     style="display:inline;opacity:0.585921"
     transform="translate(96.362218,15.88976)"
     sodipodi:insensitive="true">
    <ellipse
       style="display:inline;mix-blend-mode:normal;fill:url(#linearGradient1139);fill-opacity:1;stroke:none;stroke-width:1.48958"
       id="path303"
       cx="32.500042"
       cy="99.347481"
       rx="72.439636"
       ry="65.232826" />
  </g>
</svg>
