<?xml version="1.0" encoding="UTF-8" standalone="no"?>
<!-- Created with Inkscape (http://www.inkscape.org/) -->

<svg
   version="1.1"
   id="svg815"
   width="257.72452"
   height="255.77194"
   viewBox="0 0 257.72452 255.77194"
   sodipodi:docname="mrbostonx_butt.svg"
   inkscape:version="1.1 (c68e22c387, 2021-05-23)"
   xmlns:inkscape="http://www.inkscape.org/namespaces/inkscape"
   xmlns:sodipodi="http://sodipodi.sourceforge.net/DTD/sodipodi-0.dtd"
   xmlns:xlink="http://www.w3.org/1999/xlink"
   xmlns="http://www.w3.org/2000/svg"
   xmlns:svg="http://www.w3.org/2000/svg"
   xmlns:rdf="http://www.w3.org/1999/02/22-rdf-syntax-ns#"
   xmlns:cc="http://creativecommons.org/ns#"
   xmlns:dc="http://purl.org/dc/elements/1.1/">
  <metadata
     id="metadata821">
    <rdf:RDF>
      <cc:Work
         rdf:about="">
        <dc:format>image/svg+xml</dc:format>
        <dc:type
           rdf:resource="http://purl.org/dc/dcmitype/StillImage" />
      </cc:Work>
    </rdf:RDF>
  </metadata>
  <defs
     id="defs819">
    <filter
       inkscape:label="Button"
       inkscape:menu="Bevels"
       inkscape:menu-tooltip="Soft bevel, slightly depressed middle"
       style="color-interpolation-filters:sRGB"
       id="filter1376"
       x="-0.21963979"
       y="-0.19350874"
       width="1.4392796"
       height="1.3870175">
      <feGaussianBlur
         stdDeviation="2.3"
         in="SourceAlpha"
         result="result0"
         id="feGaussianBlur1350" />
      <feMorphology
         in="SourceAlpha"
         radius="6.6"
         result="result1"
         id="feMorphology1352" />
      <feGaussianBlur
         stdDeviation="8.9"
         in="result1"
         id="feGaussianBlur1354" />
      <feColorMatrix
         values="1 0 0 0 0 0 1 0 0 0 0 0 1 0 0 0 0 0 0.3 0"
         result="result91"
         id="feColorMatrix1356" />
      <feComposite
         in="result0"
         operator="out"
         result="result2"
         in2="result91"
         id="feComposite1358" />
      <feGaussianBlur
         stdDeviation="1.7"
         result="result4"
         id="feGaussianBlur1360" />
      <feDiffuseLighting
         surfaceScale="10"
         id="feDiffuseLighting1364">
        <feDistantLight
           azimuth="225"
           elevation="45"
           id="feDistantLight1362" />
      </feDiffuseLighting>
      <feBlend
         in2="SourceGraphic"
         mode="multiply"
         id="feBlend1366" />
      <feComposite
         in2="SourceAlpha"
         operator="in"
         result="result3"
         id="feComposite1368" />
      <feSpecularLighting
         in="result4"
         surfaceScale="5"
         specularExponent="17.89999962"
         id="feSpecularLighting1372">
        <feDistantLight
           azimuth="225"
           elevation="45"
           id="feDistantLight1370" />
      </feSpecularLighting>
      <feComposite
         in2="result3"
         operator="atop"
         id="feComposite1374" />
    </filter>
    <filter
       style="color-interpolation-filters:sRGB"
       inkscape:label="Matte Jelly"
       id="filter1690"
       x="-0.11918439"
       y="-0.10500475"
       width="1.2383688"
       height="1.2100095">
      <feColorMatrix
         values="1 0 0 0 0 0 1 0 0 0 0 0 1 0 0 0 0 0 0.85 0"
         result="color"
         in="SourceGraphic"
         id="feColorMatrix1678" />
      <feGaussianBlur
         in="SourceAlpha"
         stdDeviation="7"
         result="blur"
         id="feGaussianBlur1680" />
      <feSpecularLighting
         in="blur"
         specularExponent="25"
         specularConstant="0.89999998"
         surfaceScale="5"
         lighting-color="#ffffff"
         result="specular"
         id="feSpecularLighting1684">
        <feDistantLight
           elevation="60"
           azimuth="225"
           id="feDistantLight1682" />
      </feSpecularLighting>
      <feComposite
         in="specular"
         in2="SourceGraphic"
         k3="1"
         k2="1"
         operator="arithmetic"
         result="composite1"
         id="feComposite1686"
         k1="0"
         k4="0" />
      <feComposite
         in="composite1"
         in2="color"
         operator="atop"
         result="composite2"
         id="feComposite1688" />
    </filter>
    <linearGradient
       inkscape:collect="always"
       xlink:href="#linearGradient934"
       id="linearGradient912"
       gradientUnits="userSpaceOnUse"
       x1="89.958336"
       y1="68.791664"
       x2="89.958336"
       y2="100.54166"
       gradientTransform="matrix(1.8457533,0,0,7.9367691,-133.54088,-559.98357)" />
    <linearGradient
       inkscape:collect="always"
       id="linearGradient934">
      <stop
         style="stop-color:#4d4d4d;stop-opacity:1"
         offset="0"
         id="stop930" />
      <stop
         style="stop-color:#000000;stop-opacity:1"
         offset="1"
         id="stop932" />
    </linearGradient>
    <radialGradient
       inkscape:collect="always"
       xlink:href="#linearGradient1025"
       id="radialGradient1019"
       cx="37.041695"
       cy="84.666656"
       fx="37.041695"
       fy="84.666656"
       r="10.583333"
       gradientUnits="userSpaceOnUse"
       gradientTransform="matrix(2.60166e-7,0.99999982,-1,-1.1423277e-6,122.42231,87.277298)" />
    <linearGradient
       inkscape:collect="always"
       id="linearGradient1025">
      <stop
         style="stop-color:#ffffff;stop-opacity:1"
         offset="0"
         id="stop1021" />
      <stop
         style="stop-color:#666666;stop-opacity:1"
         offset="1"
         id="stop1023" />
    </linearGradient>
    <linearGradient
       inkscape:collect="always"
       xlink:href="#linearGradient1072"
       id="linearGradient1074"
       x1="62.362217"
       y1="11.889763"
       x2="62.362217"
       y2="111.88976"
       gradientUnits="userSpaceOnUse"
       gradientTransform="matrix(2.0996744,0,0,2.0999368,-98.44035,-17.968419)" />
    <linearGradient
       inkscape:collect="always"
       id="linearGradient1072">
      <stop
         style="stop-color:#000000;stop-opacity:1;"
         offset="0"
         id="stop1068" />
      <stop
         style="stop-color:#666666;stop-opacity:1"
         offset="1"
         id="stop1070" />
    </linearGradient>
    <linearGradient
       inkscape:collect="always"
       xlink:href="#linearGradient1137"
       id="linearGradient1139"
       x1="16.346714"
       y1="1.1279997"
       x2="16.390364"
       y2="12.461457"
       gradientUnits="userSpaceOnUse"
       gradientTransform="matrix(6.6262006,0,0,9.1234883,-74.753364,22.836882)" />
    <linearGradient
       inkscape:collect="always"
       id="linearGradient1137">
      <stop
         style="stop-color:#ffffff;stop-opacity:1;"
         offset="0"
         id="stop1133" />
      <stop
         style="stop-color:#ffffff;stop-opacity:0;"
         offset="1"
         id="stop1135" />
    </linearGradient>
  </defs>
  <sodipodi:namedview
     pagecolor="#ffffff"
     bordercolor="#666666"
     borderopacity="1"
     objecttolerance="10"
     gridtolerance="10"
     guidetolerance="10"
     inkscape:pageopacity="0"
     inkscape:pageshadow="2"
     inkscape:window-width="1366"
     inkscape:window-height="705"
     id="namedview817"
     showgrid="false"
     inkscape:zoom="1"
     inkscape:cx="136"
     inkscape:cy="191.5"
     inkscape:window-x="-8"
     inkscape:window-y="-8"
     inkscape:window-maximized="1"
     inkscape:current-layer="layer3"
     inkscape:pagecheckerboard="0">
    <inkscape:grid
       type="xygrid"
       id="grid829"
       originx="5.862218"
       originy="-283.61024" />
  </sodipodi:namedview>
  <g
     inkscape:groupmode="layer"
     id="layer1"
     inkscape:label="Layer 1"
     style="display:inline"
     transform="translate(96.362218,15.88976)"
     sodipodi:insensitive="true">
    <rect
       style="display:inline;fill:url(#linearGradient912);fill-opacity:1;stroke:#151515;stroke-width:3.77952;stroke-miterlimit:4;stroke-dasharray:none;stroke-opacity:1"
       id="rect837-1"
       width="253.94501"
       height="251.99242"
       x="-94.472458"
       y="-14"
       ry="125.99621" />
    <g
       id="g859"
       transform="matrix(7.9357773,0,0,7.936769,-267.12049,-874.69413)"
       style="display:inline;stroke-width:0.476235">
      <ellipse
         style="display:inline;fill:url(#radialGradient1019);fill-opacity:1;stroke-width:0.126004"
         id="path835"
         cx="37.755657"
         cy="124.31889"
         rx="10.583"
         ry="10.583333" />
    </g>
    <path
       id="rect914"
       style="display:inline;fill:url(#linearGradient1074);fill-opacity:1;stroke:none;stroke-width:419.529;stroke-linecap:round;stroke-linejoin:round"
       d="m 32.498141,6.4638629 c -58.457707,0 -105.516851,47.0690961 -105.516851,105.5341171 0,58.46502 47.059144,105.53002 105.516851,105.53002 58.457707,0 105.520939,-47.065 105.520939,-105.53002 0,-58.465021 -47.063232,-105.5341171 -105.520939,-105.5341171 z m 0,21.5366581 A 83.986974,83.99747 0 0 1 116.48512,111.99798 83.986974,83.99747 0 0 1 32.498141,195.99545 83.986974,83.99747 0 0 1 -51.48883,111.99798 83.986974,83.99747 0 0 1 32.498141,28.000521 Z" />
  </g>
  <g
     inkscape:groupmode="layer"
     id="layer3"
     inkscape:label="Layer 3"
     style="display:inline">
    <circle
       style="display:inline;fill:#000000;stroke-width:419.528;stroke-linecap:round;stroke-linejoin:round"
       id="path1069"
       cx="128.86226"
       cy="127.88597"
       r="82.715729" />
    <path
       style="color:#000000;font-style:normal;font-variant:normal;font-weight:normal;font-stretch:normal;font-size:medium;line-height:normal;font-family:sans-serif;font-variant-ligatures:normal;font-variant-position:normal;font-variant-caps:normal;font-variant-numeric:normal;font-variant-alternates:normal;font-feature-settings:normal;text-indent:0;text-align:start;text-decoration:none;text-decoration-line:none;text-decoration-style:solid;text-decoration-color:#000000;letter-spacing:normal;word-spacing:normal;text-transform:none;writing-mode:lr-tb;direction:ltr;text-orientation:mixed;dominant-baseline:auto;baseline-shift:baseline;text-anchor:start;white-space:normal;shape-padding:0;clip-rule:nonzero;display:inline;overflow:visible;visibility:visible;isolation:auto;mix-blend-mode:normal;color-interpolation:sRGB;color-interpolation-filters:linearRGB;solid-color:#000000;solid-opacity:1;vector-effect:none;fill:#000000;fill-opacity:1;fill-rule:nonzero;stroke:#a02c2c;stroke-width:1.13386;stroke-linecap:butt;stroke-linejoin:miter;stroke-miterlimit:4;stroke-dasharray:none;stroke-dashoffset:0;stroke-opacity:1;color-rendering:auto;image-rendering:auto;shape-rendering:auto;text-rendering:auto;enable-background:accumulate"
       d="m 128.86226,50.551013 c -42.677651,0 -77.334961,34.65731 -77.334961,77.334957 0,42.67765 34.65731,77.33496 77.334961,77.33496 42.67765,0 77.33496,-34.65731 77.33496,-77.33496 0,-42.677647 -34.65731,-77.334957 -77.33496,-77.334957 z m 0,5.632569 c 39.63341,0 71.70239,32.068987 71.70239,71.702388 0,39.63341 -32.06898,71.70239 -71.70239,71.70239 -39.633407,0 -71.702393,-32.06898 -71.702393,-71.70239 0,-39.633401 32.068986,-71.702388 71.702393,-71.702388 z"
       id="path827"
       inkscape:connector-curvature="0" />
    <path
       style="display:inline;fill:#ff0000;stroke-width:0.999996"
       d="m 121.17521,182.89956 c -0.47037,-2.52926 -1.20362,-4.94706 -1.62947,-5.37291 -0.53556,-0.53556 -2.33608,-0.23267 -5.84018,0.98242 -3.98389,1.38147 -5.53415,1.60161 -7.25801,1.03064 -2.78731,-0.92319 -5.81642,-5.23859 -5.12678,-7.30383 0.27628,-0.8274 0.54662,-2.49143 0.60074,-3.69784 0.0791,-1.76288 -0.26732,-2.28086 -1.76457,-2.6387 -1.251591,-0.29912 -1.946397,-1.04658 -2.117208,-2.27765 -0.139827,-1.00783 -0.753391,-2.39136 -1.363468,-3.0745 -0.830668,-0.93016 -0.914427,-1.60609 -0.333523,-2.69152 1.023998,-1.91336 -0.624929,-4.34854 -2.466115,-3.64202 -1.808814,0.69411 -4.1523,-0.76306 -4.1523,-2.58188 0,-0.84448 0.616679,-2.42553 1.370398,-3.51342 0.75372,-1.0879 2.496563,-4.0534 3.872976,-6.59 l 2.502567,-4.612 -1.991653,-1.99165 c -1.556009,-1.55601 -1.832674,-2.28873 -1.26482,-3.34977 0.399763,-0.74697 0.727005,-1.464 0.727206,-1.59341 2.01e-4,-0.1294 -3.436974,-0.23528 -7.638166,-0.23528 -6.539148,0 -7.879843,-0.21153 -9.315199,-1.46968 -1.901254,-1.66655 -2.221454,-4.97498 -0.61086,-6.31165 0.852449,-0.70747 1.230639,-0.57656 1.889184,0.65394 1.746792,3.26391 8.213902,1.38546 16.237172,-4.71629 15.523449,-11.80569 30.027949,-16.82392 48.619829,-16.8214 10.71898,0.002 17.58613,1.23342 24.24527,4.34961 8.46041,3.9591 13.01407,9.46861 13.01407,15.74583 0,6.42163 -4.04821,10.93488 -12.71549,14.17624 l -4.4238,1.65438 v 3.89648 c 0,2.14306 -0.30762,4.86867 -0.68358,6.05693 -0.37596,1.18826 -0.88622,3.08605 -1.13389,4.21732 l -0.4503,2.05685 -2.40574,-2.73998 c -1.32314,-1.50698 -3.4036,-3.34682 -4.62324,-4.08852 -2.17849,-1.32482 -2.21346,-1.44537 -1.9878,-6.8526 0.21812,-5.22651 0.12759,-5.58436 -1.79524,-7.09687 -4.05656,-3.19089 -8.61201,-1.26632 -9.61134,4.06057 -0.41731,2.22444 -0.75817,2.54367 -2.716,2.54367 -1.23133,0 -3.22814,0.51162 -4.43735,1.13692 -1.92434,0.99512 -2.19856,0.99949 -2.19856,0.0351 0,-0.60602 0.40711,-1.99536 0.9047,-3.08744 0.81335,-1.78513 0.71079,-2.14604 -1.01592,-3.5747 -1.05634,-0.87402 -2.97246,-2.16035 -4.25803,-2.85853 -2.69637,-1.46439 -3.09712,-3.86051 -0.84705,-5.0647 1.78563,-0.95564 1.94657,-2.64624 0.31164,-3.27362 -2.17021,-0.83279 -13.30272,-0.44202 -17.83001,0.62588 -2.46267,0.58088 -6.02491,1.71942 -7.91609,2.53007 -3.242999,1.39012 -3.46891,1.67673 -3.973431,5.04112 -0.425294,2.83605 -0.291957,3.74489 0.650517,4.43404 0.652002,0.47676 1.18218,1.50053 1.178178,2.27505 -0.0087,1.68654 -3.115469,8.5281 -5.205404,11.46315 -2.098372,2.94689 -1.914669,3.24607 1.689747,2.75204 4.830703,-0.66212 5.574223,0.16008 3.654173,4.04084 -1.202456,2.43039 -1.36516,3.34659 -0.672449,3.78666 1.294629,0.82246 4.855289,0.73984 6.520409,-0.15131 1.10985,-0.59398 1.57266,-0.45088 2.17363,0.67204 0.65018,1.21486 0.54549,1.36968 -0.70503,1.04266 -0.80772,-0.21122 -2.64624,-0.16311 -4.0856,0.10691 -3.626536,0.68035 -3.648771,3.04475 -0.035,3.7227 3.381,0.63428 3.60519,1.1592 1.91282,4.4787 -1.66874,3.27312 -1.34633,4.55332 1.51996,6.03555 2.74777,1.42092 4.0363,1.37593 8.81753,-0.30784 5.15442,-1.81519 6.61982,-1.3999 7.19508,2.03906 0.24954,1.49178 0.78139,3.78575 1.18189,5.0977 0.49805,1.6315 0.46993,2.86792 -0.089,3.91223 -0.44943,0.83977 -0.91383,1.52687 -1.032,1.52687 -0.11816,0 -0.59968,-2.0694 -1.07005,-4.59866 z m 11.76995,-39.5583 c 0,-1.16256 2.48967,-2.37299 6.33409,-3.07952 1.77073,-0.32542 1.54591,-0.0987 -1.08125,1.09026 -1.82424,0.82561 -3.75242,1.86263 -4.28482,2.30449 -0.72078,0.59819 -0.96802,0.51768 -0.96802,-0.31523 z m -29.65843,-8.90034 c -1.04748,-1.04747 -1.22049,-3.86649 -0.19855,-3.2349 0.38264,0.23648 2.14314,-0.0743 3.91224,-0.69036 4.06573,-1.4161 5.36711,-1.41691 8.09727,-0.005 2.61865,1.35415 3.03216,2.93688 0.46126,1.7655 -1.39387,-0.6351 -2.64149,-0.41099 -6.31163,1.13376 -5.34079,2.24802 -4.83182,2.15998 -5.96059,1.03121 z m -9.784463,-29.62648 c -0.974146,-4.19007 -3.584081,-9.958515 -6.066864,-13.408916 -0.751692,-1.044655 -1.591138,-2.839802 -1.865425,-3.989216 -0.430845,-1.80547 -0.03607,-2.533137 2.901332,-5.347648 8.567241,-8.208866 27.75664,-13.787169 47.4546,-13.794927 14.67288,-0.006 25.19602,2.597423 27.52067,6.808033 0.95036,1.721382 0.95168,2.379069 0.0104,5.216308 -0.69426,2.092827 -1.06205,6.195974 -1.03493,11.545993 l 0.0421,8.299403 -2.86314,-1.010173 C 140.83363,92.511776 107.03117,96.65602 96.594726,106.85797 l -2.132687,2.08478 z"
       id="path1417"
       inkscape:connector-curvature="0" />
  </g>
  <g
     inkscape:groupmode="layer"
     id="layer2"
     inkscape:label="Layer 2"
     style="display:inline;opacity:0.584388"
     transform="translate(96.362218,15.88976)">
    <ellipse
       style="display:inline;mix-blend-mode:normal;fill:url(#linearGradient1139);fill-opacity:1;stroke:none;stroke-width:1.48958"
       id="path303"
       cx="32.500042"
       cy="99.347481"
       rx="72.439636"
       ry="65.232826" />
  </g>
</svg>
